<svg width="512" height="512" viewBox="0 0 512 512" fill="none" xmlns="http://www.w3.org/2000/svg">
<g clip-path="url(#clip0_411_2)">
<path d="M405.333 256C399.675 256 394.249 258.248 390.248 262.248C386.248 266.249 384 271.675 384 277.333V448C384 459.755 374.443 469.333 362.667 469.333H64C52.224 469.333 42.6667 459.755 42.6667 448V149.333C42.6667 137.579 52.224 128 64 128H234.667C240.325 128 245.751 125.752 249.752 121.752C253.752 117.751 256 112.325 256 106.667C256 101.009 253.752 95.5825 249.752 91.5818C245.751 87.581 240.325 85.3334 234.667 85.3334H64C28.7147 85.3334 0 114.048 0 149.333V448C0 483.285 28.7147 512 64 512H362.667C397.952 512 426.667 483.285 426.667 448V277.333C426.667 271.675 424.419 266.249 420.418 262.248C416.418 258.248 410.991 256 405.333 256Z" fill="black"/>
<path d="M200.021 236.565C198.538 238.055 197.522 239.946 197.099 242.005L182.016 317.44C181.678 319.162 181.769 320.941 182.281 322.619C182.793 324.298 183.711 325.824 184.953 327.064C186.194 328.304 187.723 329.219 189.402 329.728C191.081 330.237 192.86 330.325 194.581 329.984L269.995 314.901C272.066 314.492 273.967 313.475 275.456 311.979L444.245 143.189L368.832 67.776L200.021 236.565ZM496.384 15.616C486.377 5.62799 472.816 0.0183716 458.677 0.0183716C444.539 0.0183716 430.978 5.62799 420.971 15.616L391.445 45.1413L466.859 120.555L496.384 91.0294C506.453 80.9814 512 67.584 512 53.3333C512 39.0827 506.453 25.6853 496.384 15.616Z" fill="black"/>
</g>
<defs>
<clipPath id="clip0_411_2">
<rect width="512" height="512" fill="white"/>
</clipPath>
</defs>
</svg>
